<svg fill="none" height="48" viewBox="0 0 48 48" width="48" xmlns="http://www.w3.org/2000/svg"><path clip-rule="evenodd" d="m0 24c0-13.2548 10.7452-24 24-24s24 10.7452 24 24-10.7452 24-24 24-24-10.7452-24-24zm19.2 14.4c2.651 0 4.8-2.149 4.8-4.8v-4.8h-4.8c-2.651 0-4.8 2.149-4.8 4.8s2.149 4.8 4.8 4.8zm-4.8-14.4c0 2.651 2.149 4.8 4.8 4.8h4.8v-9.6h-4.8c-2.651 0-4.8 2.149-4.8 4.8zm0-9.6c0 2.651 2.149 4.8 4.8 4.8h4.8v-9.6h-4.8c-2.651 0-4.8 2.149-4.8 4.8zm9.6-4.8v9.6h4.8c2.651 0 4.8-2.149 4.8-4.8s-2.149-4.8-4.8-4.8zm9.6 14.4c0-2.651-2.149-4.8-4.8-4.8s-4.8 2.149-4.8 4.8 2.149 4.8 4.8 4.8 4.8-2.149 4.8-4.8z" fill="#000" fill-rule="evenodd"/></svg>