<svg height="512" width="512" xmlns="http://www.w3.org/2000/svg"><path d="m457.8113403 359.4449463-57.4876099-35.5793152c27.7839355-46.2885742 42.7766113-120.2431335 29.9395447-236.7599335-1.2509155-17.1808624-17.9017029-20.1114044-22.6229248-1.9869995-20.0773926 60.2433167-86.8186951 82.6220093-137.2262268 90.9335327-19.4072266-10.5767365-40.5252991-8.1172638-59.7909851 4.3874969-47.2272491-3.4841919-82.5387573-30.604187-104.1348495-82.8384705l-2.3616409 101.5678558c-4.8335876 9.5075989-6.6124496 18.5739746-5.5960617 27.236557-22.2413177-23.266037-53.1452141-36.2314758-79.4035416-18.4706116-52.4222946 43.2775421 13.4115314 139.896637 71.3396988 128.6871643 83.6848831 58.5712891 191.6286011 84.9919739 270.7477112 30.8352051l76.9794617 29.8868408c13.2637557 22.0040285 15.6323165 11.584778 73.8060836 41.846924-13.6349182-46.2829895-18.5566406-83.0160522-54.1886597-79.7462463zm-429.6234893-102.4057617c-11.146307-7.7108154-11.146307-27.0915985 0-34.8023834 11.1463089-7.7108002 25.1545067 1.9799805 25.1545067 17.4015656-.0000001 15.420822-14.0081978 25.1116027-25.1545067 17.4008178zm190.7724914-73.1430359c33.5701141-19.3537903 75.7604828 4.969574 75.7604828 43.6764679 0 38.7075653-42.1903687 63.0309296-75.7604828 43.6771393-33.570816-19.3537903-33.570816-68.0005036 0-87.3536072zm-91.1611023 74.7989197c-27.7000046-16.0167084-27.7000046-56.2762756 0-72.2929688 24.4003754-14.1087799 54.3204956-.1706696 61.1029205 25.2447052-2.8382721 8.0832825-3.7027283 18.2236176-1.6241455 26.3041229-8.8887634 22.5396424-36.5422821 34.0065003-59.478775 20.7441407zm201.4041596 72.3516845 5.1076965 3.0896912c-40.3978271 22.5059509-102.765625 15.6063232-178.4827881-6.4420776 67.9555969 9.2141418 135.513916 10.4284058 193.8742371-32.3782654l9.2315674 14.1422729c-18.88974 1.8379517-26.6772156 12.7172241-29.7307129 21.5883789zm-85.3563691-72.8316345c-17.3748627-10.0167999-17.3748627-35.1947784 0-45.2115784s39.2113495 2.5721741 39.2113495 22.6057892-21.8364868 32.6226044-39.2113495 22.6057892zm-61.9829254-28.8235168c0-17.0651703-18.6009369-27.7888184-33.4013367-19.2562256-14.8003845 8.5325775-14.8003845 29.9798737.0000153 38.5124664 14.8003845 8.5325775 33.4013214-2.1910553 33.4013214-19.2562408z"/></svg>