<svg viewBox="0 0 14 14" xmlns="http://www.w3.org/2000/svg"><path d="m.9999998 7.0000066v5.9999944h12.0000002v-12.00000195h-12.0000002v6.00000755zm7.359375-.2109464v.5390661h-1.546875v4.9218757h-1.265625v-4.9218757h-1.5468751v-1.078119h4.3593751zm3.0468752-.4734396c.192187.037467.407812.089067.482812.1171999l.126563.0516v.5859327c0 .3234397-.0094.5859328-.01875.5859328-.0094 0-.107812-.0516-.220312-.1125332-.421875-.2390665-1.096875-.328133-1.509375-.2062532-.09844.028133-.24375.1171999-.31875.1921865-.1124998.1078666-.1359374.1734399-.1359374.3468797 0 .1874932.023437.2390664.178125.384373.098437.093733.4640624.3093731.8203124.4875062.75.3703064 1.129687.6843726 1.303125 1.0734256.154687.3468794.159375 1.0781324.0094 1.4062524-.140625.309373-.45.623439-.754687.768759-.646875.30468-1.7015627.332813-2.5265627.06093l-.2953125-.0984v-1.303119l.2343751.168747c.3046604.220306.6984105.356253 1.1109105.384373.4124996.02813.7171876-.04693.9046876-.225.117188-.107866.140625-.168746.140625-.346879 0-.342187-.196875-.520307-1.0031252-.9140529-.7125-.3515701-.9374999-.5109432-1.1484374-.8203162-.46875-.6796928-.3281251-1.7203051.2999999-2.1937447.534375-.4078129 1.4203127-.5578128 2.3203127-.3937596z"/></svg>